<svg width="16" height="17" viewBox="0 0 16 17" fill="none" xmlns="http://www.w3.org/2000/svg">
<path fill-rule="evenodd" clip-rule="evenodd" d="M5 0H11C13.761 0 16 2.24937 16 5.02315V11.0509C16 13.8247 13.761 16.0741 11 16.0741H5C2.239 16.0741 0 13.8247 0 11.0509V5.02315C0 2.24937 2.239 0 5 0ZM11 14.5671C12.93 14.5671 14.5 12.9899 14.5 11.0509V5.02315C14.5 3.08421 12.93 1.50694 11 1.50694H5C3.07 1.50694 1.5 3.08421 1.5 5.02315V11.0509C1.5 12.9899 3.07 14.5671 5 14.5671H11ZM4 8.03704C4 5.81781 5.791 4.01852 8 4.01852C10.209 4.01852 12 5.81781 12 8.03704C12 10.2563 10.209 12.0556 8 12.0556C5.791 12.0556 4 10.2563 4 8.03704ZM5.5 8.03704C5.5 9.42142 6.622 10.5486 8 10.5486C9.378 10.5486 10.5 9.42142 10.5 8.03704C10.5 6.65165 9.378 5.52546 8 5.52546C6.622 5.52546 5.5 6.65165 5.5 8.03704ZM12.833 3.71713C12.833 4.01286 12.5944 4.2526 12.3 4.2526C12.0057 4.2526 11.767 4.01286 11.767 3.71713C11.767 3.4214 12.0057 3.18167 12.3 3.18167C12.5944 3.18167 12.833 3.4214 12.833 3.71713Z" fill="#B0B8BC"/>
</svg>
