<svg width="16" height="17" viewBox="0 0 16 17" fill="none" xmlns="http://www.w3.org/2000/svg">
<path fill-rule="evenodd" clip-rule="evenodd" d="M3.5 1.7581C3.5 2.72907 2.7165 3.5162 1.75 3.5162C0.783502 3.5162 0 2.72907 0 1.7581C0 0.787129 0.783502 0 1.75 0C2.7165 0 3.5 0.787129 3.5 1.7581ZM0 5.02315H3.578V16.0741H0V5.02315ZM13.324 5.15275C13.3113 5.14873 13.2989 5.1446 13.2864 5.14047C13.2616 5.13221 13.2367 5.12395 13.21 5.11658C13.162 5.10553 13.114 5.09649 13.065 5.08845C12.875 5.05027 12.667 5.02315 12.423 5.02315C10.337 5.02315 9.014 6.54717 8.578 7.13588V5.02315H5V16.0741H8.578V10.0463C8.578 10.0463 11.282 6.26286 12.423 9.04167V16.0741H16V8.61671C16 6.94701 14.861 5.5556 13.324 5.15275Z" fill="#B0B8BC"/>
</svg>
