<svg width="16" height="17" viewBox="0 0 16 17" fill="none" xmlns="http://www.w3.org/2000/svg">
<path d="M16 2.8856C15.405 3.14781 14.771 3.32161 14.11 3.406C14.79 2.99812 15.309 2.35717 15.553 1.58461C14.919 1.96436 14.219 2.23259 13.473 2.38228C12.871 1.73832 12.013 1.33948 11.077 1.33948C9.261 1.33948 7.799 2.8203 7.799 4.63567C7.799 4.89687 7.821 5.14803 7.875 5.38713C5.148 5.25351 2.735 3.94046 1.114 1.94025C0.831 2.43352 0.665 2.99812 0.665 3.60592C0.665 4.74718 1.25 5.75884 2.122 6.34454C1.595 6.3345 1.078 6.18079 0.64 5.93867C0.64 5.94872 0.64 5.96178 0.64 5.97484C0.64 7.57622 1.777 8.90635 3.268 9.21276C3.001 9.2861 2.71 9.32126 2.408 9.32126C2.198 9.32126 1.986 9.3092 1.787 9.265C2.212 10.57 3.418 11.5294 4.852 11.5606C3.736 12.4376 2.319 12.9661 0.785 12.9661C0.516 12.9661 0.258 12.954 0 12.9208C1.453 13.8622 3.175 14.3997 5.032 14.3997C11.068 14.3997 14.368 9.37651 14.368 5.02245C14.368 4.87678 14.363 4.73613 14.356 4.59649C15.007 4.13235 15.554 3.55268 16 2.8856Z" fill="#B0B8BC"/>
</svg>
