<svg width="16" height="17" viewBox="0 0 16 17" fill="none" xmlns="http://www.w3.org/2000/svg">
<path fill-rule="evenodd" clip-rule="evenodd" d="M13.456 2.77138C14.415 2.82563 14.886 2.96829 15.32 3.74386C15.772 4.51843 16 5.85258 16 8.20241V8.20542V8.21045C16 10.5492 15.772 11.8934 15.321 12.66C14.887 13.4355 14.416 13.5762 13.457 13.6415C12.498 13.6967 10.089 13.7299 8.002 13.7299C5.911 13.7299 3.501 13.6967 2.543 13.6405C1.586 13.5752 1.115 13.4345 0.677 12.6589C0.23 11.8924 0 10.5482 0 8.20944V8.20743V8.20442V8.2014C0 5.85258 0.23 4.51843 0.677 3.74386C1.115 2.96728 1.587 2.82563 2.544 2.77038C3.501 2.70608 5.911 2.67896 8.002 2.67896C10.089 2.67896 12.498 2.70608 13.456 2.77138ZM11 8.20442L6 5.19053V11.2183L11 8.20442Z" fill="#B0B8BC"/>
</svg>
